<?xml version="1.0" standalone="no"?>
<!DOCTYPE svg PUBLIC "-//W3C//DTD SVG 20010904//EN"
 "http://www.w3.org/TR/2001/REC-SVG-20010904/DTD/svg10.dtd">
<svg version="1.0" xmlns="http://www.w3.org/2000/svg"
 width="1081.000000pt" height="929.000000pt" viewBox="0 0 1081.000000 929.000000"
 preserveAspectRatio="xMidYMid meet">
<metadata>
Created by potrace 1.16, written by Peter Selinger 2001-2019
</metadata>
<g transform="translate(0.000000,929.000000) scale(0.100000,-0.100000)"
fill="#000000" stroke="none">
<path d="M3005 7799 c-241 -27 -453 -159 -590 -364 -50 -76 -81 -147 -108
-246 l-22 -84 0 -2305 0 -2305 22 -77 c74 -254 222 -429 455 -537 166 -77 -40
-72 2553 -69 l2320 3 80 28 c131 46 220 102 321 202 106 104 158 187 206 325
l33 95 3 2305 c3 2536 6 2374 -58 2530 -97 235 -297 409 -555 482 l-80 23
-2255 1 c-1240 1 -2286 -2 -2325 -7z m1142 -240 c20 -105 86 -223 178 -315
134 -135 256 -189 465 -204 190 -14 277 -50 394 -160 189 -180 226 -446 100
-719 l-34 -73 -54 54 c-64 66 -147 118 -236 149 -96 33 -248 33 -349 -1 -135
-43 -254 -140 -324 -261 -51 -87 -69 -156 -73 -273 l-3 -108 -75 -33 c-241
-105 -452 -311 -560 -547 -71 -155 -94 -255 -106 -468 -10 -175 -26 -260 -69
-380 -114 -311 -363 -554 -677 -661 -88 -30 -242 -61 -256 -53 -13 8 -10 3469
3 3561 29 207 152 384 334 480 137 72 133 72 765 72 l565 1 12 -61z m2133
-1843 l0 -1904 -42 -17 c-38 -15 -2647 -1010 -3068 -1170 -91 -34 -274 -104
-408 -155 -133 -51 -245 -90 -249 -87 -3 3 -15 37 -26 74 -19 62 -21 100 -25
463 l-4 396 111 17 c459 73 841 384 1005 819 44 117 67 243 76 417 10 179 29
272 78 390 81 193 250 370 447 468 100 50 98 50 135 -7 67 -104 204 -203 326
-234 l49 -12 5 -540 c4 -410 8 -544 18 -561 27 -49 94 -58 139 -19 l28 24 3
549 2 548 53 13 c149 35 303 160 370 302 19 41 40 99 46 128 14 66 14 173 0
231 -9 41 -8 46 30 105 175 268 210 591 92 841 -76 161 -187 273 -346 350
-110 52 -157 64 -305 75 -168 13 -254 47 -352 138 -59 55 -102 121 -128 197
-11 32 -20 60 -20 62 0 1 441 3 980 3 l980 0 0 -1904z m1334 1888 c116 -30
202 -79 291 -168 89 -88 122 -141 163 -256 l27 -75 3 -497 3 -498 -820 0 -821
0 0 755 0 755 546 0 c464 0 555 -2 608 -16z m-2697 -1494 c115 -40 207 -138
245 -263 54 -179 -35 -373 -210 -459 -62 -31 -74 -33 -167 -33 -93 0 -105 2
-167 33 -157 76 -252 258 -219 419 29 146 130 262 266 306 91 29 160 28 252
-3z m3183 -893 l0 -713 -752 -287 c-414 -157 -783 -298 -820 -311 l-68 -26 0
1025 0 1025 820 0 820 0 0 -713z m0 -1784 c0 -972 1 -945 -71 -1093 -56 -114
-169 -228 -279 -282 -136 -67 -143 -68 -748 -68 l-542 0 2 847 3 847 805 307
c443 169 811 308 818 308 9 1 12 -179 12 -866z m-1820 -633 l0 -810 -1000 0
-1000 0 2 431 3 432 940 358 c517 198 963 368 990 378 28 11 53 20 58 20 4 1
7 -363 7 -809z m-2180 -415 l0 -395 -538 0 c-504 0 -544 1 -616 20 -102 26
-187 72 -264 144 -34 32 -61 61 -58 63 5 5 1458 561 1469 562 4 1 7 -177 7
-394z"/>
</g>
</svg>
