<?xml version="1.0" standalone="no"?>
<!DOCTYPE svg PUBLIC "-//W3C//DTD SVG 20010904//EN"
 "http://www.w3.org/TR/2001/REC-SVG-20010904/DTD/svg10.dtd">
<svg version="1.0" xmlns="http://www.w3.org/2000/svg"
 width="1113.000000pt" height="913.000000pt" viewBox="0 0 1113.000000 913.000000"
 preserveAspectRatio="xMidYMid meet">
<metadata>
Created by potrace 1.16, written by Peter Selinger 2001-2019
</metadata>
<g transform="translate(0.000000,913.000000) scale(0.100000,-0.100000)"
fill="#000000" stroke="none">
<path d="M2999 8071 l-29 -29 0 -821 0 -821 -407 -325 c-225 -179 -416 -338
-425 -353 -17 -25 -18 -130 -18 -1795 l0 -1769 29 -29 29 -29 2947 0 2946 0
24 25 25 24 0 1778 c0 1503 -2 1782 -14 1798 -8 11 -199 169 -425 350 l-411
329 0 216 0 215 -633 633 -632 632 -1488 0 -1489 0 -29 -29z m2881 -736 c3
-319 9 -586 14 -594 25 -39 54 -41 636 -41 l560 0 -1 -832 0 -833 -613 -490
c-337 -269 -618 -491 -623 -492 -6 -2 -164 120 -353 272 -367 295 -372 298
-430 258 -14 -9 -170 -133 -347 -275 -177 -142 -324 -258 -328 -258 -4 0 -285
223 -626 496 l-619 496 0 1433 c0 787 3 1435 7 1438 3 4 617 6 1362 5 l1356
-3 5 -580z m630 0 l445 -445 -448 0 -447 0 0 445 c0 245 1 445 3 445 1 0 202
-200 447 -445z m-3542 -1899 l-3 -245 -298 239 c-164 131 -298 242 -298 246
-1 3 134 114 298 245 l298 239 3 -239 c1 -132 1 -350 0 -485z m4594 498 c156
-125 291 -234 301 -244 17 -16 5 -28 -275 -251 -161 -129 -299 -238 -305 -243
-10 -6 -13 93 -13 478 0 267 2 486 5 486 3 0 132 -102 287 -226z m-4590 -985
c365 -293 799 -640 965 -773 166 -133 302 -244 302 -248 1 -9 -1902 -1536
-1924 -1544 -13 -5 -15 173 -15 1545 0 853 2 1551 5 1551 2 0 303 -239 667
-531z m4966 -1797 l-3 -780 -220 177 c-121 97 -551 441 -955 765 -404 324
-741 594 -748 601 -11 10 87 94 535 452 301 242 737 591 968 776 l420 337 3
-774 c1 -426 1 -1125 0 -1554z m-1764 396 c578 -464 1169 -937 1313 -1053
l262 -210 -1316 -3 c-723 -1 -1904 -1 -2625 0 l-1311 3 174 141 c96 77 629
504 1184 949 556 445 1066 855 1135 912 69 56 127 102 129 102 2 1 477 -378
1055 -841z"/>
<path d="M3754 6880 c-55 -22 -71 -99 -30 -147 l24 -28 765 0 765 0 26 24 c36
34 36 98 0 132 l-26 24 -751 2 c-414 1 -762 -2 -773 -7z"/>
<path d="M3745 6148 c-52 -30 -62 -102 -20 -143 l24 -25 339 0 c325 0 340 1
365 20 14 11 28 33 32 49 7 34 -15 85 -44 101 -28 15 -670 13 -696 -2z"/>
<path d="M4819 6131 c-38 -38 -39 -87 -4 -125 l24 -26 824 0 c811 0 825 0 850
20 14 11 28 33 32 49 7 34 -15 85 -44 101 -13 7 -295 10 -836 10 l-817 0 -29
-29z"/>
<path d="M3725 5405 c-28 -27 -34 -88 -12 -116 30 -39 30 -39 924 -39 959 0
900 -4 923 64 13 40 1 77 -32 100 -20 14 -112 16 -901 16 l-878 0 -24 -25z"/>
<path d="M5896 5404 c-29 -29 -35 -86 -13 -115 28 -36 51 -39 331 -39 l275 0
28 24 c39 34 39 98 0 132 l-28 24 -283 0 -283 0 -27 -26z"/>
</g>
</svg>
