<?xml version="1.0" standalone="no"?>
<!DOCTYPE svg PUBLIC "-//W3C//DTD SVG 20010904//EN"
 "http://www.w3.org/TR/2001/REC-SVG-20010904/DTD/svg10.dtd">
<svg version="1.0" xmlns="http://www.w3.org/2000/svg"
 width="1065.000000pt" height="857.000000pt" viewBox="0 0 1065.000000 857.000000"
 preserveAspectRatio="xMidYMid meet">
<metadata>
Created by potrace 1.16, written by Peter Selinger 2001-2019
</metadata>
<g transform="translate(0.000000,857.000000) scale(0.100000,-0.100000)"
fill="#000000" stroke="none">
<path d="M2759 7554 l-24 -26 0 -1726 c0 -1930 -5 -1777 71 -2014 205 -635
923 -1326 2007 -1932 182 -101 534 -276 557 -276 23 0 375 175 557 276 1093
611 1795 1289 2008 1940 75 226 70 91 70 2011 l0 1721 -24 26 -24 26 -2587 0
-2587 0 -24 -26z m5061 -1803 c0 -1812 3 -1707 -61 -1904 -59 -181 -186 -404
-340 -594 -84 -104 -379 -399 -503 -502 -376 -313 -885 -642 -1393 -899 l-152
-77 -98 48 c-366 181 -793 437 -1113 667 -304 219 -631 514 -813 733 -219 264
-355 523 -406 774 -21 100 -21 124 -21 1752 l0 1651 2450 0 2450 0 0 -1649z"/>
<path d="M5220 7015 c-206 -41 -365 -163 -455 -350 -53 -109 -75 -210 -75
-343 0 -218 62 -398 195 -561 l64 -80 -16 -48 c-17 -50 -88 -129 -139 -156
-16 -8 -93 -33 -170 -55 -409 -117 -569 -214 -660 -397 l-39 -79 -3 -248 -3
-248 25 -25 25 -25 1401 0 1401 0 24 25 25 24 0 224 c0 197 -2 233 -20 290
-25 80 -86 173 -148 227 -90 77 -273 157 -520 227 -179 50 -236 81 -290 157
-16 22 -34 56 -40 74 -11 31 -9 35 51 110 77 95 128 191 163 307 25 82 28 104
28 255 0 151 -2 172 -26 242 -83 250 -258 406 -506 454 -89 17 -204 17 -292
-1z m320 -194 c163 -51 276 -182 315 -367 60 -283 -80 -603 -312 -711 -79 -37
-161 -49 -235 -35 -240 45 -418 279 -435 572 -20 350 200 584 529 564 43 -2
105 -13 138 -23z m-175 -1295 c104 0 130 3 193 25 l74 26 9 -25 c19 -48 99
-151 144 -183 l45 -33 -22 -24 c-76 -82 -218 -132 -399 -139 -200 -9 -373 38
-461 124 l-37 36 44 34 c51 39 105 105 135 167 l20 43 68 -25 c58 -22 83 -26
187 -26z m-610 -285 c11 -35 121 -129 194 -166 238 -119 614 -119 844 2 75 40
164 114 187 158 18 33 31 31 217 -30 255 -84 359 -150 415 -262 21 -43 23 -64
26 -205 l4 -158 -1272 0 -1271 0 3 158 c3 143 5 161 27 207 33 65 96 127 168
163 102 52 385 150 435 151 9 1 19 -7 23 -18z"/>
<path d="M3980 3973 c-63 -23 -82 -109 -34 -154 l26 -24 1398 0 1398 0 26 24
c36 34 36 98 0 132 l-26 24 -1386 2 c-763 1 -1394 -1 -1402 -4z"/>
<path d="M3963 3360 c-49 -20 -60 -104 -18 -145 l24 -25 973 0 c876 0 976 2
996 16 33 23 45 60 32 100 -23 68 46 64 -1020 63 -531 0 -975 -4 -987 -9z"/>
</g>
</svg>
