<?xml version="1.0" standalone="no"?>
<!DOCTYPE svg PUBLIC "-//W3C//DTD SVG 20010904//EN"
 "http://www.w3.org/TR/2001/REC-SVG-20010904/DTD/svg10.dtd">
<svg version="1.0" xmlns="http://www.w3.org/2000/svg"
 width="1001.000000pt" height="769.000000pt" viewBox="0 0 1001.000000 769.000000"
 preserveAspectRatio="xMidYMid meet">
<metadata>
Created by potrace 1.16, written by Peter Selinger 2001-2019
</metadata>
<g transform="translate(0.000000,769.000000) scale(0.100000,-0.100000)"
fill="#000000" stroke="none">
<path d="M3244 6805 c-158 -34 -321 -163 -389 -307 -54 -114 -65 -182 -65
-425 l0 -213 -458 0 c-499 0 -487 1 -511 -57 -9 -21 -11 -530 -8 -2043 3
-2246 -3 -2054 71 -2252 131 -348 446 -609 815 -673 126 -22 4096 -22 4222 0
433 75 771 406 866 847 17 78 18 207 18 2363 0 2148 -1 2284 -18 2344 -27 98
-75 179 -152 256 -81 82 -160 127 -271 155 -76 20 -117 20 -2068 19 -1612 0
-2003 -3 -2052 -14z m3546 -173 c0 -4 -13 -26 -29 -48 -41 -55 -81 -137 -97
-198 -11 -42 -14 -428 -14 -2228 l0 -2178 -400 0 -400 0 0 1909 0 1910 -24 28
-24 28 -1414 5 -1413 5 -3 180 c-3 204 6 282 42 360 49 108 168 201 286 224
56 11 3490 14 3490 3z m576 -23 c107 -40 196 -133 235 -246 19 -55 19 -105 19
-2315 0 -2500 5 -2324 -65 -2495 -178 -440 -692 -664 -1131 -494 -207 80 -384
241 -483 438 -36 73 -81 221 -81 269 l0 34 458 0 459 0 24 26 24 26 5 2241 c5
2085 6 2245 22 2285 66 165 232 270 402 256 32 -3 83 -14 112 -25z m-1696
-2919 c4 -1542 8 -1995 18 -2030 45 -163 93 -270 173 -386 47 -67 181 -206
244 -252 l30 -22 -1695 3 -1695 2 -80 23 c-334 94 -581 354 -650 683 -13 61
-15 334 -15 2020 l0 1949 1833 -2 1832 -3 5 -1985z"/>
<path d="M2435 5105 l-25 -24 0 -825 0 -825 24 -28 24 -28 647 0 647 0 24 28
24 28 0 825 0 825 -25 24 -24 25 -646 0 -646 0 -24 -25z m1185 -850 l0 -695
-515 0 -515 0 0 695 0 695 515 0 515 0 0 -695z"/>
<path d="M4225 5105 c-36 -35 -34 -88 4 -126 l29 -29 467 0 c315 0 473 4 487
11 26 14 48 67 41 102 -3 15 -17 36 -31 47 -24 19 -42 20 -499 20 l-474 0 -24
-25z"/>
<path d="M4225 4315 c-36 -35 -34 -88 4 -126 l29 -29 462 0 c512 0 508 0 529
63 13 38 7 62 -22 95 l-20 22 -479 0 -479 0 -24 -25z"/>
<path d="M4254 3550 c-55 -22 -71 -99 -30 -147 l24 -28 454 -3 c299 -2 465 0
489 8 27 7 41 19 53 45 20 41 13 75 -21 107 l-25 23 -461 2 c-254 1 -472 -2
-483 -7z"/>
<path d="M2441 2744 c-38 -32 -43 -87 -10 -128 l20 -26 765 0 765 0 24 25 c36
35 34 88 -4 126 l-29 29 -750 0 -750 0 -31 -26z"/>
<path d="M4385 2758 c-33 -18 -45 -40 -45 -83 0 -30 6 -47 23 -63 23 -22 26
-22 433 -22 l411 0 20 23 c29 32 35 56 22 94 -20 62 -25 63 -456 63 -261 -1
-395 -4 -408 -12z"/>
<path d="M2455 1968 c-52 -30 -62 -102 -20 -143 l24 -25 339 0 c328 0 340 1
366 21 36 29 37 99 1 134 l-24 25 -333 0 c-232 -1 -339 -4 -353 -12z"/>
<path d="M3545 1968 c-52 -30 -62 -102 -20 -143 l24 -25 586 0 586 0 24 25
c36 35 34 88 -4 126 l-29 29 -574 0 c-412 -1 -579 -4 -593 -12z"/>
</g>
</svg>
