<?xml version="1.0" standalone="no"?>
<!DOCTYPE svg PUBLIC "-//W3C//DTD SVG 20010904//EN"
 "http://www.w3.org/TR/2001/REC-SVG-20010904/DTD/svg10.dtd">
<svg version="1.0" xmlns="http://www.w3.org/2000/svg"
 width="929.000000pt" height="769.000000pt" viewBox="0 0 929.000000 769.000000"
 preserveAspectRatio="xMidYMid meet">
<metadata>
Created by potrace 1.16, written by Peter Selinger 2001-2019
</metadata>
<g transform="translate(0.000000,769.000000) scale(0.100000,-0.100000)"
fill="#000000" stroke="none">
<path d="M1957 6299 c-49 -28 -47 39 -47 -1812 0 -1243 3 -1743 11 -1766 23
-65 -86 -61 1603 -61 l1534 0 31 26 c41 34 44 92 6 129 l-24 25 -1486 0 -1485
0 0 1582 0 1581 22 -19 c25 -22 1953 -1799 2040 -1881 49 -46 62 -53 97 -53
40 0 55 13 893 787 469 433 945 873 1058 978 l205 190 5 -967 5 -966 24 -26
c33 -35 92 -36 126 -1 l25 24 0 1096 0 1096 -25 24 -24 25 -2288 0 c-1609 -1
-2293 -4 -2306 -11z m4278 -208 c-77 -76 -1970 -1821 -1975 -1821 -6 0 -1883
1730 -1965 1811 l-50 49 2015 0 2015 0 -40 -39z"/>
<path d="M4999 4205 c-36 -19 -51 -63 -37 -111 5 -21 82 -247 170 -503 88
-256 184 -538 214 -626 31 -88 82 -236 114 -330 32 -93 149 -433 259 -755 145
-423 206 -590 222 -602 31 -26 96 -24 120 5 11 12 141 294 289 627 147 333
274 613 281 622 8 9 291 140 629 290 338 150 623 281 632 290 27 27 24 99 -4
125 -13 11 -72 37 -133 57 -309 106 -1928 661 -2418 830 -153 53 -286 96 -295
96 -9 -1 -29 -7 -43 -15z m497 -331 c153 -53 407 -140 564 -193 1230 -422
1500 -516 1500 -521 0 -3 -235 -108 -521 -235 -286 -126 -530 -240 -542 -252
-12 -13 -125 -256 -252 -542 -126 -286 -233 -517 -237 -513 -6 6 -171 478
-223 637 -7 22 -63 186 -125 365 -61 179 -140 408 -175 510 -35 102 -113 331
-174 509 -61 178 -111 325 -111 327 0 9 29 0 296 -92z"/>
</g>
</svg>
