<?xml version="1.0" standalone="no"?>
<!DOCTYPE svg PUBLIC "-//W3C//DTD SVG 20010904//EN"
 "http://www.w3.org/TR/2001/REC-SVG-20010904/DTD/svg10.dtd">
<svg version="1.0" xmlns="http://www.w3.org/2000/svg"
 width="953.000000pt" height="849.000000pt" viewBox="0 0 953.000000 849.000000"
 preserveAspectRatio="xMidYMid meet">
<metadata>
Created by potrace 1.16, written by Peter Selinger 2001-2019
</metadata>
<g transform="translate(0.000000,849.000000) scale(0.100000,-0.100000)"
fill="#000000" stroke="none">
<path d="M1764 6760 c-12 -5 -29 -19 -38 -32 -15 -20 -16 -245 -16 -2551 l0
-2528 25 -24 c17 -18 35 -25 61 -25 45 0 62 16 657 627 l402 413 473 0 472 0
0 -465 0 -466 25 -24 24 -25 1425 0 1425 0 243 -247 c672 -685 628 -643 674
-643 35 0 47 5 68 31 l26 31 -2 2055 -3 2055 -28 24 -28 24 -575 0 -574 0 0
859 0 860 -24 28 -24 28 -2334 2 c-1303 1 -2342 -2 -2354 -7z m4556 -2055 l0
-1875 -1770 -2 -1771 -3 -152 -155 c-84 -85 -284 -290 -445 -454 l-292 -300 0
2332 0 2332 2215 0 2215 0 0 -1875z m1208 -1758 c1 -1097 -2 -1857 -7 -1855
-5 1 -145 143 -311 313 -165 171 -330 338 -366 373 l-64 62 -1400 0 -1400 0 0
400 0 400 1236 2 1236 3 24 28 24 28 0 1055 0 1054 513 -2 512 -3 3 -1858z"/>
<path d="M3811 6242 c-17 -16 -30 -43 -34 -67 -55 -369 -70 -445 -88 -450 -13
-4 -75 34 -213 135 -136 99 -206 143 -231 147 -36 6 -38 4 -231 -188 -178
-178 -194 -197 -194 -229 0 -29 25 -69 145 -234 80 -110 145 -202 145 -205 -1
-23 -42 -34 -260 -70 -229 -36 -246 -41 -267 -66 -23 -26 -23 -30 -23 -291 l0
-266 28 -27 c27 -28 82 -39 474 -98 24 -3 40 -12 43 -23 4 -13 -37 -76 -131
-207 -76 -103 -142 -200 -147 -214 -6 -14 -7 -36 -3 -50 10 -36 355 -386 389
-394 15 -4 37 -5 50 -1 12 3 109 68 214 145 134 97 199 138 212 134 13 -3 21
-17 25 -46 61 -403 69 -442 97 -469 l27 -28 266 0 c263 0 265 0 292 23 25 22
29 37 66 268 35 216 46 258 69 259 3 0 92 -63 199 -140 106 -77 203 -143 216
-146 13 -4 34 -4 47 0 12 3 106 90 210 194 220 222 216 210 134 323 -29 41
-95 132 -145 202 -64 88 -91 134 -87 146 4 15 35 23 178 45 94 15 204 32 242
38 54 9 76 18 98 39 l27 27 0 265 c0 248 -1 266 -20 290 -24 30 -14 28 -289
72 -205 32 -240 42 -241 67 0 4 60 90 133 190 158 216 161 221 153 262 -8 44
-357 393 -402 402 -41 8 -42 7 -260 -152 -138 -101 -190 -133 -204 -129 -11 4
-20 9 -20 13 0 4 -18 115 -39 246 -36 225 -40 241 -65 263 -27 23 -30 23 -292
23 l-266 0 -27 -28z m449 -157 c0 -2 16 -105 35 -227 25 -154 41 -230 53 -247
20 -27 138 -81 192 -88 32 -4 51 7 223 131 103 75 191 136 195 136 10 0 212
-203 212 -213 0 -5 -61 -92 -135 -194 -92 -127 -135 -194 -135 -212 0 -39 65
-183 92 -203 16 -12 95 -29 244 -53 121 -19 224 -35 227 -35 4 0 7 -69 7 -154
l0 -154 -27 -6 c-16 -3 -118 -20 -228 -37 -110 -17 -209 -37 -221 -44 -24 -15
-94 -171 -94 -208 0 -16 49 -92 135 -211 74 -103 135 -190 135 -194 0 -4 -48
-55 -106 -113 l-106 -107 -184 134 c-101 73 -195 136 -209 140 -32 8 -202 -62
-220 -90 -10 -15 -85 -433 -85 -472 0 -2 -69 -4 -154 -4 l-154 0 -6 28 c-3 15
-20 117 -37 227 -17 110 -37 209 -44 221 -18 29 -188 98 -221 90 -14 -4 -106
-65 -204 -136 -98 -72 -182 -130 -187 -130 -18 0 -216 208 -210 222 3 7 64 94
136 192 72 98 131 188 131 200 0 35 -72 197 -94 211 -12 7 -113 27 -226 45
-113 17 -215 34 -227 37 -23 5 -23 8 -23 159 0 85 2 154 5 154 2 0 105 16 227
35 152 24 230 41 246 53 31 23 95 178 88 214 -3 14 -66 109 -140 210 l-134
183 106 108 c59 59 109 107 113 107 3 0 91 -61 194 -135 127 -91 196 -135 214
-135 39 0 183 65 203 92 11 15 27 92 48 223 16 110 33 212 36 228 l6 27 154 0
c85 0 154 -2 154 -5z"/>
<path d="M3971 5195 c-156 -44 -285 -171 -333 -328 -27 -90 -22 -234 11 -320
32 -82 105 -173 179 -224 276 -188 663 -47 746 272 18 67 20 179 6 243 -34
145 -157 287 -300 343 -73 28 -231 36 -309 14z m255 -194 c140 -62 214 -222
168 -367 -26 -85 -117 -176 -199 -199 -237 -69 -449 143 -380 380 22 76 114
172 190 198 64 22 155 17 221 -12z"/>
</g>
</svg>
